<svg width="202" height="48" viewBox="0 0 202 48" fill="none" xmlns="http://www.w3.org/2000/svg">
<rect width="202" height="48" fill="white"/>
<path d="M66.952 27.872H62.504L61.768 30H59.416L63.432 18.816H66.04L70.056 30H67.688L66.952 27.872ZM66.344 26.08L64.728 21.408L63.112 26.08H66.344ZM70.9811 25.536C70.9811 24.64 71.1571 23.8453 71.5091 23.152C71.8718 22.4587 72.3625 21.9253 72.9811 21.552C73.5998 21.1787 74.2878 20.992 75.0451 20.992C75.6211 20.992 76.1705 21.12 76.6931 21.376C77.2158 21.6213 77.6318 21.952 77.9411 22.368V18.16H80.2131V30H77.9411V28.688C77.6638 29.1253 77.2745 29.4773 76.7731 29.744C76.2718 30.0107 75.6905 30.144 75.0291 30.144C74.2825 30.144 73.5998 29.952 72.9811 29.568C72.3625 29.184 71.8718 28.6453 71.5091 27.952C71.1571 27.248 70.9811 26.4427 70.9811 25.536ZM77.9571 25.568C77.9571 25.024 77.8505 24.56 77.6371 24.176C77.4238 23.7813 77.1358 23.4827 76.7731 23.28C76.4105 23.0667 76.0211 22.96 75.6051 22.96C75.1891 22.96 74.8051 23.0613 74.4531 23.264C74.1011 23.4667 73.8131 23.7653 73.5891 24.16C73.3758 24.544 73.2691 25.0027 73.2691 25.536C73.2691 26.0693 73.3758 26.5387 73.5891 26.944C73.8131 27.3387 74.1011 27.6427 74.4531 27.856C74.8158 28.0693 75.1998 28.176 75.6051 28.176C76.0211 28.176 76.4105 28.0747 76.7731 27.872C77.1358 27.6587 77.4238 27.36 77.6371 26.976C77.8505 26.5813 77.9571 26.112 77.9571 25.568ZM81.8249 25.536C81.8249 24.64 82.0009 23.8453 82.3529 23.152C82.7155 22.4587 83.2062 21.9253 83.8249 21.552C84.4435 21.1787 85.1315 20.992 85.8889 20.992C86.4649 20.992 87.0142 21.12 87.5369 21.376C88.0595 21.6213 88.4755 21.952 88.7849 22.368V18.16H91.0569V30H88.7849V28.688C88.5075 29.1253 88.1182 29.4773 87.6169 29.744C87.1155 30.0107 86.5342 30.144 85.8729 30.144C85.1262 30.144 84.4435 29.952 83.8249 29.568C83.2062 29.184 82.7155 28.6453 82.3529 27.952C82.0009 27.248 81.8249 26.4427 81.8249 25.536ZM88.8009 25.568C88.8009 25.024 88.6942 24.56 88.4809 24.176C88.2675 23.7813 87.9795 23.4827 87.6169 23.28C87.2542 23.0667 86.8649 22.96 86.4489 22.96C86.0329 22.96 85.6489 23.0613 85.2969 23.264C84.9449 23.4667 84.6569 23.7653 84.4329 24.16C84.2195 24.544 84.1129 25.0027 84.1129 25.536C84.1129 26.0693 84.2195 26.5387 84.4329 26.944C84.6569 27.3387 84.9449 27.6427 85.2969 27.856C85.6595 28.0693 86.0435 28.176 86.4489 28.176C86.8649 28.176 87.2542 28.0747 87.6169 27.872C87.9795 27.6587 88.2675 27.36 88.4809 26.976C88.6942 26.5813 88.8009 26.112 88.8009 25.568ZM99.6651 22.976V27.264C99.6651 27.5627 99.7345 27.7813 99.8731 27.92C100.022 28.048 100.268 28.112 100.609 28.112H101.649V30H100.241C98.3531 30 97.4091 29.0827 97.4091 27.248V22.976H96.3531V21.136H97.4091V18.944H99.6651V21.136H101.649V22.976H99.6651ZM107.196 30.144C106.343 30.144 105.575 29.9573 104.892 29.584C104.21 29.2 103.671 28.6613 103.276 27.968C102.892 27.2747 102.7 26.4747 102.7 25.568C102.7 24.6613 102.898 23.8613 103.292 23.168C103.698 22.4747 104.247 21.9413 104.94 21.568C105.634 21.184 106.407 20.992 107.26 20.992C108.114 20.992 108.887 21.184 109.58 21.568C110.274 21.9413 110.818 22.4747 111.212 23.168C111.618 23.8613 111.82 24.6613 111.82 25.568C111.82 26.4747 111.612 27.2747 111.196 27.968C110.791 28.6613 110.236 29.2 109.532 29.584C108.839 29.9573 108.06 30.144 107.196 30.144ZM107.196 28.192C107.602 28.192 107.98 28.096 108.332 27.904C108.695 27.7013 108.983 27.4027 109.196 27.008C109.41 26.6133 109.516 26.1333 109.516 25.568C109.516 24.7253 109.292 24.08 108.844 23.632C108.407 23.1733 107.868 22.944 107.228 22.944C106.588 22.944 106.05 23.1733 105.612 23.632C105.186 24.08 104.972 24.7253 104.972 25.568C104.972 26.4107 105.18 27.0613 105.596 27.52C106.023 27.968 106.556 28.192 107.196 28.192ZM116.7 25.568C116.7 24.6507 116.887 23.8507 117.26 23.168C117.633 22.4747 118.151 21.9413 118.812 21.568C119.473 21.184 120.231 20.992 121.084 20.992C122.183 20.992 123.089 21.2693 123.804 21.824C124.529 22.368 125.015 23.136 125.26 24.128H122.844C122.716 23.744 122.497 23.4453 122.188 23.232C121.889 23.008 121.516 22.896 121.068 22.896C120.428 22.896 119.921 23.1307 119.548 23.6C119.175 24.0587 118.988 24.7147 118.988 25.568C118.988 26.4107 119.175 27.0667 119.548 27.536C119.921 27.9947 120.428 28.224 121.068 28.224C121.975 28.224 122.567 27.8187 122.844 27.008H125.26C125.015 27.968 124.529 28.7307 123.804 29.296C123.079 29.8613 122.172 30.144 121.084 30.144C120.231 30.144 119.473 29.9573 118.812 29.584C118.151 29.2 117.633 28.6667 117.26 27.984C116.887 27.2907 116.7 26.4853 116.7 25.568ZM126.325 25.536C126.325 24.64 126.501 23.8453 126.853 23.152C127.216 22.4587 127.701 21.9253 128.309 21.552C128.928 21.1787 129.616 20.992 130.373 20.992C131.034 20.992 131.61 21.1253 132.101 21.392C132.602 21.6587 133.002 21.9947 133.301 22.4V21.136H135.557V30H133.301V28.704C133.013 29.12 132.613 29.4667 132.101 29.744C131.6 30.0107 131.018 30.144 130.357 30.144C129.61 30.144 128.928 29.952 128.309 29.568C127.701 29.184 127.216 28.6453 126.853 27.952C126.501 27.248 126.325 26.4427 126.325 25.536ZM133.301 25.568C133.301 25.024 133.194 24.56 132.981 24.176C132.768 23.7813 132.48 23.4827 132.117 23.28C131.754 23.0667 131.365 22.96 130.949 22.96C130.533 22.96 130.149 23.0613 129.797 23.264C129.445 23.4667 129.157 23.7653 128.933 24.16C128.72 24.544 128.613 25.0027 128.613 25.536C128.613 26.0693 128.72 26.5387 128.933 26.944C129.157 27.3387 129.445 27.6427 129.797 27.856C130.16 28.0693 130.544 28.176 130.949 28.176C131.365 28.176 131.754 28.0747 132.117 27.872C132.48 27.6587 132.768 27.36 132.981 26.976C133.194 26.5813 133.301 26.112 133.301 25.568ZM139.985 22.512C140.273 22.0427 140.646 21.6747 141.105 21.408C141.574 21.1413 142.107 21.008 142.705 21.008V23.36H142.113C141.409 23.36 140.875 23.5253 140.513 23.856C140.161 24.1867 139.985 24.7627 139.985 25.584V30H137.745V21.136H139.985V22.512ZM146.821 22.976V27.264C146.821 27.5627 146.891 27.7813 147.029 27.92C147.179 28.048 147.424 28.112 147.765 28.112H148.805V30H147.397C145.509 30 144.565 29.0827 144.565 27.248V22.976H143.509V21.136H144.565V18.944H146.821V21.136H148.805V22.976H146.821Z" fill="#B88E2F"/>
</svg>
