<svg width="25" height="24" viewBox="0 0 25 24" fill="none" xmlns="http://www.w3.org/2000/svg">
<path d="M8.75332 6.76849C8.39534 6.4105 7.81494 6.4105 7.45696 6.76849C7.09898 7.12647 7.09898 7.70687 7.45696 8.06485L11.3921 12L7.45696 15.9352C7.09898 16.2931 7.09898 16.8735 7.45696 17.2315C7.81494 17.5895 8.39534 17.5895 8.75332 17.2315L12.6885 13.2964L16.6236 17.2315C16.9816 17.5895 17.562 17.5895 17.92 17.2315C18.278 16.8735 18.278 16.2931 17.92 15.9352L13.9848 12L17.92 8.06485C18.278 7.70687 18.278 7.12647 17.92 6.76849C17.562 6.4105 16.9816 6.4105 16.6236 6.76849L12.6885 10.7036L8.75332 6.76849Z" fill="#CACACA"/>
</svg>
