<svg width="534" height="64" viewBox="0 0 534 64" fill="none" xmlns="http://www.w3.org/2000/svg">
<rect x="0.5" y="0.5" width="533" height="63" rx="3.5" fill="white"/>
<rect x="0.5" y="0.5" width="533" height="63" rx="3.5" stroke="#333333"/>
<path d="M150.501 31.7332C150.501 30.8699 150.429 30.2399 150.274 29.5865H140.215V33.4832H146.12C146.001 34.4515 145.358 35.9099 143.929 36.8898L143.909 37.0203L147.09 39.435L147.31 39.4565C149.334 37.6249 150.501 34.9298 150.501 31.7332Z" fill="#4285F4"/>
<path d="M140.214 42.0001C143.107 42.0001 145.535 41.0667 147.309 39.4567L143.928 36.89C143.023 37.5083 141.809 37.94 140.214 37.94C137.381 37.94 134.976 36.1083 134.119 33.5767L133.993 33.5871L130.686 36.0955L130.643 36.2133C132.404 39.6433 136.023 42.0001 140.214 42.0001Z" fill="#34A853"/>
<path d="M134.121 33.5767C133.895 32.9234 133.764 32.2233 133.764 31.5C133.764 30.7767 133.895 30.0767 134.109 29.4234L134.103 29.2842L130.754 26.7356L130.645 26.7867C129.919 28.21 129.502 29.8084 129.502 31.5C129.502 33.1917 129.919 34.79 130.645 36.2133L134.121 33.5767Z" fill="#FBBC05"/>
<path d="M140.214 25.06C142.226 25.06 143.583 25.9116 144.357 26.6233L147.381 23.73C145.524 22.0383 143.107 21 140.214 21C136.024 21 132.404 23.3566 130.643 26.7866L134.107 29.4233C134.976 26.8917 137.381 25.06 140.214 25.06Z" fill="#EB4335"/>
<path d="M182.016 25.512C181.504 24.824 180.872 24.312 180.12 23.976C179.368 23.624 178.584 23.448 177.768 23.448C176.824 23.448 175.952 23.64 175.152 24.024C174.368 24.408 173.688 24.928 173.112 25.584C172.536 26.224 172.088 26.976 171.768 27.84C171.448 28.688 171.288 29.576 171.288 30.504C171.288 31.496 171.448 32.424 171.768 33.288C172.088 34.136 172.528 34.88 173.088 35.52C173.664 36.144 174.344 36.64 175.128 37.008C175.928 37.376 176.808 37.56 177.768 37.56C178.808 37.56 179.736 37.36 180.552 36.96C181.368 36.544 182.08 35.952 182.688 35.184L184.2 36.456C183.432 37.48 182.504 38.232 181.416 38.712C180.344 39.192 179.128 39.432 177.768 39.432C176.552 39.432 175.416 39.208 174.36 38.76C173.304 38.312 172.384 37.696 171.6 36.912C170.832 36.112 170.224 35.168 169.776 34.08C169.344 32.992 169.128 31.8 169.128 30.504C169.128 29.256 169.336 28.088 169.752 27C170.184 25.912 170.784 24.968 171.552 24.168C172.32 23.368 173.232 22.736 174.288 22.272C175.344 21.808 176.504 21.576 177.768 21.576C178.92 21.576 180.024 21.784 181.08 22.2C182.152 22.616 183.048 23.296 183.768 24.24L182.016 25.512ZM186.026 33.384C186.026 32.504 186.178 31.704 186.482 30.984C186.786 30.264 187.202 29.648 187.73 29.136C188.258 28.608 188.89 28.2 189.626 27.912C190.362 27.624 191.162 27.48 192.026 27.48C192.89 27.48 193.69 27.624 194.426 27.912C195.162 28.2 195.794 28.608 196.322 29.136C196.85 29.648 197.266 30.264 197.57 30.984C197.874 31.704 198.026 32.504 198.026 33.384C198.026 34.264 197.874 35.064 197.57 35.784C197.266 36.504 196.85 37.128 196.322 37.656C195.794 38.168 195.162 38.568 194.426 38.856C193.69 39.144 192.89 39.288 192.026 39.288C191.162 39.288 190.362 39.144 189.626 38.856C188.89 38.568 188.258 38.168 187.73 37.656C187.202 37.128 186.786 36.504 186.482 35.784C186.178 35.064 186.026 34.264 186.026 33.384ZM188.042 33.384C188.042 33.976 188.13 34.528 188.306 35.04C188.498 35.536 188.77 35.976 189.122 36.36C189.474 36.728 189.89 37.024 190.37 37.248C190.866 37.456 191.418 37.56 192.026 37.56C192.634 37.56 193.178 37.456 193.658 37.248C194.154 37.024 194.578 36.728 194.93 36.36C195.282 35.976 195.546 35.536 195.722 35.04C195.914 34.528 196.01 33.976 196.01 33.384C196.01 32.792 195.914 32.248 195.722 31.752C195.546 31.24 195.282 30.8 194.93 30.432C194.578 30.048 194.154 29.752 193.658 29.544C193.178 29.32 192.634 29.208 192.026 29.208C191.418 29.208 190.866 29.32 190.37 29.544C189.89 29.752 189.474 30.048 189.122 30.432C188.77 30.8 188.498 31.24 188.306 31.752C188.13 32.248 188.042 32.792 188.042 33.384ZM200.924 30.432C200.924 29.92 200.908 29.44 200.876 28.992C200.844 28.544 200.828 28.136 200.828 27.768H202.604C202.604 28.072 202.612 28.376 202.628 28.68C202.644 28.984 202.652 29.296 202.652 29.616H202.7C202.828 29.344 203.004 29.08 203.228 28.824C203.468 28.568 203.748 28.344 204.068 28.152C204.388 27.944 204.748 27.784 205.148 27.672C205.548 27.544 205.98 27.48 206.444 27.48C207.18 27.48 207.812 27.592 208.34 27.816C208.884 28.04 209.332 28.352 209.684 28.752C210.036 29.152 210.292 29.64 210.452 30.216C210.628 30.776 210.716 31.392 210.716 32.064V39H208.844V32.256C208.844 31.312 208.636 30.568 208.22 30.024C207.804 29.48 207.156 29.208 206.276 29.208C205.668 29.208 205.14 29.312 204.692 29.52C204.26 29.728 203.9 30.024 203.612 30.408C203.34 30.792 203.132 31.248 202.988 31.776C202.86 32.304 202.796 32.888 202.796 33.528V39H200.924V30.432ZM220.404 29.352H217.092V34.968C217.092 35.336 217.1 35.68 217.116 36C217.132 36.304 217.196 36.576 217.308 36.816C217.42 37.04 217.588 37.224 217.812 37.368C218.036 37.496 218.356 37.56 218.772 37.56C219.044 37.56 219.324 37.528 219.612 37.464C219.9 37.4 220.172 37.304 220.428 37.176L220.5 38.88C220.18 39.024 219.82 39.128 219.42 39.192C219.036 39.256 218.668 39.288 218.316 39.288C217.644 39.288 217.108 39.2 216.708 39.024C216.308 38.848 215.996 38.6 215.772 38.28C215.548 37.96 215.396 37.568 215.316 37.104C215.252 36.624 215.22 36.096 215.22 35.52V29.352H212.772V27.768H215.22V24.576H217.092V27.768H220.404V29.352ZM222.889 27.768H224.761V39H222.889V27.768ZM222.457 23.376C222.457 23.008 222.585 22.688 222.841 22.416C223.113 22.144 223.441 22.008 223.825 22.008C224.209 22.008 224.529 22.144 224.785 22.416C225.057 22.688 225.193 23.008 225.193 23.376C225.193 23.776 225.065 24.104 224.809 24.36C224.553 24.616 224.225 24.744 223.825 24.744C223.425 24.744 223.097 24.616 222.841 24.36C222.585 24.104 222.457 23.776 222.457 23.376ZM228.487 30.432C228.487 29.92 228.471 29.44 228.439 28.992C228.407 28.544 228.391 28.136 228.391 27.768H230.167C230.167 28.072 230.175 28.376 230.191 28.68C230.207 28.984 230.215 29.296 230.215 29.616H230.263C230.391 29.344 230.567 29.08 230.791 28.824C231.031 28.568 231.311 28.344 231.631 28.152C231.951 27.944 232.311 27.784 232.711 27.672C233.111 27.544 233.543 27.48 234.007 27.48C234.743 27.48 235.375 27.592 235.903 27.816C236.447 28.04 236.895 28.352 237.247 28.752C237.599 29.152 237.855 29.64 238.015 30.216C238.191 30.776 238.279 31.392 238.279 32.064V39H236.407V32.256C236.407 31.312 236.199 30.568 235.783 30.024C235.367 29.48 234.719 29.208 233.839 29.208C233.231 29.208 232.703 29.312 232.255 29.52C231.823 29.728 231.463 30.024 231.175 30.408C230.903 30.792 230.695 31.248 230.551 31.776C230.423 32.304 230.359 32.888 230.359 33.528V39H228.487V30.432ZM251.615 36.336C251.615 36.848 251.631 37.328 251.663 37.776C251.695 38.224 251.711 38.632 251.711 39H249.935C249.935 38.696 249.927 38.392 249.911 38.088C249.895 37.784 249.887 37.472 249.887 37.152H249.839C249.711 37.424 249.527 37.688 249.287 37.944C249.063 38.2 248.791 38.432 248.471 38.64C248.151 38.832 247.791 38.984 247.391 39.096C246.991 39.224 246.559 39.288 246.095 39.288C245.359 39.288 244.719 39.176 244.175 38.952C243.647 38.728 243.207 38.416 242.855 38.016C242.503 37.616 242.239 37.136 242.063 36.576C241.903 36 241.823 35.376 241.823 34.704V27.768H243.695V34.512C243.695 35.456 243.903 36.2 244.319 36.744C244.735 37.288 245.383 37.56 246.263 37.56C246.871 37.56 247.391 37.456 247.823 37.248C248.271 37.04 248.631 36.744 248.903 36.36C249.191 35.976 249.399 35.52 249.527 34.992C249.671 34.464 249.743 33.88 249.743 33.24V27.768H251.615V36.336ZM265.191 36.96C264.519 37.824 263.783 38.432 262.983 38.784C262.183 39.12 261.255 39.288 260.199 39.288C259.319 39.288 258.527 39.136 257.823 38.832C257.119 38.512 256.519 38.088 256.023 37.56C255.543 37.032 255.167 36.408 254.895 35.688C254.639 34.968 254.511 34.2 254.511 33.384C254.511 32.52 254.655 31.728 254.943 31.008C255.231 30.272 255.631 29.648 256.143 29.136C256.655 28.608 257.263 28.2 257.967 27.912C258.671 27.624 259.439 27.48 260.271 27.48C261.055 27.48 261.775 27.616 262.431 27.888C263.087 28.144 263.647 28.528 264.111 29.04C264.591 29.536 264.959 30.152 265.215 30.888C265.471 31.608 265.599 32.432 265.599 33.36V33.96H256.527C256.559 34.44 256.671 34.904 256.863 35.352C257.071 35.784 257.335 36.168 257.655 36.504C257.975 36.824 258.351 37.08 258.783 37.272C259.215 37.464 259.687 37.56 260.199 37.56C261.015 37.56 261.703 37.416 262.263 37.128C262.823 36.84 263.327 36.416 263.775 35.856L265.191 36.96ZM263.583 32.376C263.551 31.416 263.239 30.648 262.647 30.072C262.055 29.496 261.239 29.208 260.199 29.208C259.159 29.208 258.319 29.496 257.679 30.072C257.039 30.648 256.655 31.416 256.527 32.376H263.583ZM287.222 39H285.374L282.182 30.36H282.134L279.302 39H277.382L273.734 27.768H275.798L278.366 36.408H278.414L281.318 27.768H283.286L286.238 36.408H286.286L288.83 27.768H290.846L287.222 39ZM293.132 27.768H295.004V39H293.132V27.768ZM292.7 23.376C292.7 23.008 292.828 22.688 293.084 22.416C293.356 22.144 293.684 22.008 294.068 22.008C294.452 22.008 294.772 22.144 295.028 22.416C295.3 22.688 295.436 23.008 295.436 23.376C295.436 23.776 295.308 24.104 295.052 24.36C294.796 24.616 294.468 24.744 294.068 24.744C293.668 24.744 293.34 24.616 293.084 24.36C292.828 24.104 292.7 23.776 292.7 23.376ZM304.873 29.352H301.561V34.968C301.561 35.336 301.569 35.68 301.585 36C301.601 36.304 301.665 36.576 301.777 36.816C301.889 37.04 302.057 37.224 302.281 37.368C302.505 37.496 302.825 37.56 303.241 37.56C303.513 37.56 303.793 37.528 304.081 37.464C304.369 37.4 304.641 37.304 304.897 37.176L304.969 38.88C304.649 39.024 304.289 39.128 303.889 39.192C303.505 39.256 303.137 39.288 302.785 39.288C302.113 39.288 301.577 39.2 301.177 39.024C300.777 38.848 300.465 38.6 300.241 38.28C300.017 37.96 299.865 37.568 299.785 37.104C299.721 36.624 299.689 36.096 299.689 35.52V29.352H297.241V27.768H299.689V24.576H301.561V27.768H304.873V29.352ZM307.19 20.856H309.062V29.328H309.11C309.238 29.104 309.414 28.888 309.638 28.68C309.862 28.456 310.126 28.256 310.43 28.08C310.75 27.904 311.102 27.76 311.486 27.648C311.87 27.536 312.278 27.48 312.71 27.48C313.446 27.48 314.078 27.592 314.606 27.816C315.15 28.04 315.598 28.352 315.95 28.752C316.302 29.152 316.558 29.64 316.718 30.216C316.894 30.776 316.982 31.392 316.982 32.064V39H315.11V32.256C315.11 31.312 314.902 30.568 314.486 30.024C314.07 29.48 313.422 29.208 312.542 29.208C311.934 29.208 311.406 29.312 310.958 29.52C310.526 29.728 310.166 30.024 309.878 30.408C309.606 30.792 309.398 31.248 309.254 31.776C309.126 32.304 309.062 32.888 309.062 33.528V39H307.19V20.856ZM341.99 37.848C341.014 38.392 339.982 38.792 338.894 39.048C337.822 39.304 336.734 39.432 335.63 39.432C334.302 39.432 333.086 39.216 331.982 38.784C330.878 38.352 329.918 37.744 329.102 36.96C328.302 36.176 327.678 35.24 327.23 34.152C326.782 33.048 326.558 31.832 326.558 30.504C326.558 29.16 326.79 27.944 327.254 26.856C327.734 25.752 328.39 24.816 329.222 24.048C330.054 23.264 331.022 22.656 332.126 22.224C333.23 21.792 334.422 21.576 335.702 21.576C336.822 21.576 337.894 21.744 338.918 22.08C339.958 22.416 340.886 22.992 341.702 23.808L340.19 25.392C339.614 24.768 338.91 24.288 338.078 23.952C337.262 23.616 336.422 23.448 335.558 23.448C334.582 23.448 333.678 23.624 332.846 23.976C332.014 24.328 331.286 24.816 330.662 25.44C330.054 26.064 329.574 26.808 329.222 27.672C328.886 28.536 328.718 29.48 328.718 30.504C328.718 31.512 328.886 32.448 329.222 33.312C329.574 34.176 330.054 34.928 330.662 35.568C331.286 36.192 332.03 36.68 332.894 37.032C333.758 37.384 334.71 37.56 335.75 37.56C336.438 37.56 337.158 37.48 337.91 37.32C338.662 37.144 339.35 36.896 339.974 36.576V31.368H336.062V29.496H341.99V37.848ZM345.237 33.384C345.237 32.504 345.389 31.704 345.693 30.984C345.997 30.264 346.413 29.648 346.941 29.136C347.469 28.608 348.101 28.2 348.837 27.912C349.573 27.624 350.373 27.48 351.237 27.48C352.101 27.48 352.901 27.624 353.637 27.912C354.373 28.2 355.005 28.608 355.533 29.136C356.061 29.648 356.477 30.264 356.781 30.984C357.085 31.704 357.237 32.504 357.237 33.384C357.237 34.264 357.085 35.064 356.781 35.784C356.477 36.504 356.061 37.128 355.533 37.656C355.005 38.168 354.373 38.568 353.637 38.856C352.901 39.144 352.101 39.288 351.237 39.288C350.373 39.288 349.573 39.144 348.837 38.856C348.101 38.568 347.469 38.168 346.941 37.656C346.413 37.128 345.997 36.504 345.693 35.784C345.389 35.064 345.237 34.264 345.237 33.384ZM347.253 33.384C347.253 33.976 347.341 34.528 347.517 35.04C347.709 35.536 347.981 35.976 348.333 36.36C348.685 36.728 349.101 37.024 349.581 37.248C350.077 37.456 350.629 37.56 351.237 37.56C351.845 37.56 352.389 37.456 352.869 37.248C353.365 37.024 353.789 36.728 354.141 36.36C354.493 35.976 354.757 35.536 354.933 35.04C355.125 34.528 355.221 33.976 355.221 33.384C355.221 32.792 355.125 32.248 354.933 31.752C354.757 31.24 354.493 30.8 354.141 30.432C353.789 30.048 353.365 29.752 352.869 29.544C352.389 29.32 351.845 29.208 351.237 29.208C350.629 29.208 350.077 29.32 349.581 29.544C349.101 29.752 348.685 30.048 348.333 30.432C347.981 30.8 347.709 31.24 347.517 31.752C347.341 32.248 347.253 32.792 347.253 33.384ZM359.487 33.384C359.487 32.504 359.639 31.704 359.943 30.984C360.247 30.264 360.663 29.648 361.191 29.136C361.719 28.608 362.351 28.2 363.087 27.912C363.823 27.624 364.623 27.48 365.487 27.48C366.351 27.48 367.151 27.624 367.887 27.912C368.623 28.2 369.255 28.608 369.783 29.136C370.311 29.648 370.727 30.264 371.031 30.984C371.335 31.704 371.487 32.504 371.487 33.384C371.487 34.264 371.335 35.064 371.031 35.784C370.727 36.504 370.311 37.128 369.783 37.656C369.255 38.168 368.623 38.568 367.887 38.856C367.151 39.144 366.351 39.288 365.487 39.288C364.623 39.288 363.823 39.144 363.087 38.856C362.351 38.568 361.719 38.168 361.191 37.656C360.663 37.128 360.247 36.504 359.943 35.784C359.639 35.064 359.487 34.264 359.487 33.384ZM361.503 33.384C361.503 33.976 361.591 34.528 361.767 35.04C361.959 35.536 362.231 35.976 362.583 36.36C362.935 36.728 363.351 37.024 363.831 37.248C364.327 37.456 364.879 37.56 365.487 37.56C366.095 37.56 366.639 37.456 367.119 37.248C367.615 37.024 368.039 36.728 368.391 36.36C368.743 35.976 369.007 35.536 369.183 35.04C369.375 34.528 369.471 33.976 369.471 33.384C369.471 32.792 369.375 32.248 369.183 31.752C369.007 31.24 368.743 30.8 368.391 30.432C368.039 30.048 367.615 29.752 367.119 29.544C366.639 29.32 366.095 29.208 365.487 29.208C364.879 29.208 364.327 29.32 363.831 29.544C363.351 29.752 362.935 30.048 362.583 30.432C362.231 30.8 361.959 31.24 361.767 31.752C361.591 32.248 361.503 32.792 361.503 33.384ZM385.593 38.496C385.593 40.544 385.065 42.096 384.009 43.152C382.969 44.224 381.457 44.76 379.473 44.76C378.369 44.76 377.369 44.6 376.473 44.28C375.593 43.96 374.753 43.408 373.953 42.624L375.297 41.088C375.889 41.728 376.513 42.208 377.169 42.528C377.841 42.864 378.609 43.032 379.473 43.032C380.305 43.032 380.993 42.904 381.537 42.648C382.097 42.408 382.537 42.072 382.857 41.64C383.177 41.224 383.401 40.744 383.529 40.2C383.657 39.656 383.721 39.088 383.721 38.496V37.056H383.673C383.225 37.776 382.641 38.304 381.921 38.64C381.201 38.976 380.465 39.144 379.713 39.144C378.833 39.144 378.025 39 377.289 38.712C376.553 38.424 375.921 38.024 375.393 37.512C374.865 37 374.457 36.392 374.169 35.688C373.881 34.984 373.737 34.216 373.737 33.384C373.737 32.472 373.881 31.648 374.169 30.912C374.457 30.176 374.857 29.56 375.369 29.064C375.897 28.552 376.529 28.16 377.265 27.888C378.001 27.616 378.817 27.48 379.713 27.48C380.097 27.48 380.481 27.528 380.865 27.624C381.249 27.704 381.617 27.84 381.969 28.032C382.337 28.208 382.665 28.44 382.953 28.728C383.241 29 383.481 29.32 383.673 29.688H383.721V27.768H385.593V38.496ZM375.753 33.384C375.753 33.96 375.857 34.496 376.065 34.992C376.273 35.472 376.553 35.896 376.905 36.264C377.273 36.616 377.697 36.896 378.177 37.104C378.657 37.312 379.169 37.416 379.713 37.416C380.353 37.416 380.921 37.304 381.417 37.08C381.913 36.856 382.329 36.56 382.665 36.192C383.017 35.808 383.281 35.376 383.457 34.896C383.633 34.4 383.721 33.88 383.721 33.336C383.721 32.728 383.625 32.176 383.433 31.68C383.241 31.168 382.969 30.728 382.617 30.36C382.265 29.992 381.841 29.712 381.345 29.52C380.849 29.312 380.305 29.208 379.713 29.208C379.121 29.208 378.577 29.32 378.081 29.544C377.601 29.752 377.185 30.048 376.833 30.432C376.497 30.8 376.233 31.24 376.041 31.752C375.849 32.248 375.753 32.792 375.753 33.384ZM389.225 20.856H391.097V39H389.225V20.856ZM404.855 36.96C404.183 37.824 403.447 38.432 402.647 38.784C401.847 39.12 400.919 39.288 399.863 39.288C398.983 39.288 398.191 39.136 397.487 38.832C396.783 38.512 396.183 38.088 395.687 37.56C395.207 37.032 394.831 36.408 394.559 35.688C394.303 34.968 394.175 34.2 394.175 33.384C394.175 32.52 394.319 31.728 394.607 31.008C394.895 30.272 395.295 29.648 395.807 29.136C396.319 28.608 396.927 28.2 397.631 27.912C398.335 27.624 399.103 27.48 399.935 27.48C400.719 27.48 401.439 27.616 402.095 27.888C402.751 28.144 403.311 28.528 403.775 29.04C404.255 29.536 404.623 30.152 404.879 30.888C405.135 31.608 405.263 32.432 405.263 33.36V33.96H396.191C396.223 34.44 396.335 34.904 396.527 35.352C396.735 35.784 396.999 36.168 397.319 36.504C397.639 36.824 398.015 37.08 398.447 37.272C398.879 37.464 399.351 37.56 399.863 37.56C400.679 37.56 401.367 37.416 401.927 37.128C402.487 36.84 402.991 36.416 403.439 35.856L404.855 36.96ZM403.247 32.376C403.215 31.416 402.903 30.648 402.311 30.072C401.719 29.496 400.903 29.208 399.863 29.208C398.823 29.208 397.983 29.496 397.343 30.072C396.703 30.648 396.319 31.416 396.191 32.376H403.247Z" fill="#333333"/>
</svg>
