<svg width="24" height="24" viewBox="0 0 24 24" fill="none" xmlns="http://www.w3.org/2000/svg">
<path d="M5.00014 11L5.98072 10.8039L5.00014 11ZM18.0196 10.8039C17.5536 13.1336 16.3758 15.5012 15.0687 17.2836C14.4166 18.1728 13.7546 18.8857 13.1657 19.3651C12.5344 19.8789 12.1398 20 12.0001 20V22C12.8605 22 13.7159 21.4961 14.4283 20.9162C15.1832 20.3017 15.9586 19.4522 16.6815 18.4664C18.1245 16.4988 19.4467 13.8664 19.9807 11.1961L18.0196 10.8039ZM12.0001 20C11.8605 20 11.4659 19.8789 10.8345 19.3651C10.2457 18.8857 9.58364 18.1728 8.93155 17.2836C7.62446 15.5012 6.44666 13.1336 5.98072 10.8039L4.01956 11.1961C4.55363 13.8664 5.87584 16.4988 7.31874 18.4664C8.04166 19.4521 8.81712 20.3017 9.572 20.9162C10.2844 21.4961 11.1398 22 12.0001 22V20ZM5.98072 10.8039C5.54836 8.64212 6.21975 6.98087 7.3782 5.83637C8.56704 4.66184 10.3073 3.99999 12.0001 3.99999V1.99999C9.827 1.99999 7.56723 2.83815 5.97257 4.41362C4.34751 6.01912 3.4519 8.35786 4.01956 11.1961L5.98072 10.8039ZM12.0001 3.99999C13.693 3.99999 15.4332 4.66184 16.6221 5.83637C17.7805 6.98087 18.4519 8.64212 18.0196 10.8039L19.9807 11.1961C20.5484 8.35786 19.6527 6.01912 18.0277 4.41362C16.433 2.83815 14.1733 1.99999 12.0001 1.99999V3.99999ZM13.5001 10C13.5001 10.8284 12.8286 11.5 12.0001 11.5V13.5C13.9331 13.5 15.5001 11.933 15.5001 10H13.5001ZM12.0001 11.5C11.1717 11.5 10.5001 10.8284 10.5001 10H8.50014C8.50014 11.933 10.0671 13.5 12.0001 13.5V11.5ZM10.5001 10C10.5001 9.17157 11.1717 8.5 12.0001 8.5V6.5C10.0671 6.5 8.50014 8.067 8.50014 10H10.5001ZM12.0001 8.5C12.8286 8.5 13.5001 9.17157 13.5001 10H15.5001C15.5001 8.067 13.9331 6.5 12.0001 6.5V8.5Z" fill="#324552"/>
</svg>
