<svg width="354" height="44" viewBox="0 0 354 44" fill="none" xmlns="http://www.w3.org/2000/svg">
<rect width="212" height="44" fill="white"/>
<rect x="212" width="142" height="44" fill="#B88E2F"/>
<path d="M25.142 11.2H30.65V35H25.142V11.2ZM14.33 35H8.822V11.2H14.33V35ZM25.55 25.242H13.922V20.584H25.55V25.242ZM47.841 35.408C45.9597 35.408 44.2143 35.102 42.605 34.49C41.0183 33.878 39.6357 33.0167 38.457 31.906C37.301 30.7953 36.3943 29.492 35.737 27.996C35.1023 26.5 34.785 24.868 34.785 23.1C34.785 21.332 35.1023 19.7 35.737 18.204C36.3943 16.708 37.3123 15.4047 38.491 14.294C39.6697 13.1833 41.0523 12.322 42.639 11.71C44.2257 11.098 45.9483 10.792 47.807 10.792C49.6883 10.792 51.411 11.098 52.975 11.71C54.5617 12.322 55.933 13.1833 57.089 14.294C58.2677 15.4047 59.1857 16.708 59.843 18.204C60.5003 19.6773 60.829 21.3093 60.829 23.1C60.829 24.868 60.5003 26.5113 59.843 28.03C59.1857 29.526 58.2677 30.8293 57.089 31.94C55.933 33.028 54.5617 33.878 52.975 34.49C51.411 35.102 49.6997 35.408 47.841 35.408ZM47.807 30.716C48.8723 30.716 49.847 30.5347 50.731 30.172C51.6377 29.8093 52.431 29.288 53.111 28.608C53.791 27.928 54.3123 27.1233 54.675 26.194C55.0603 25.2647 55.253 24.2333 55.253 23.1C55.253 21.9667 55.0603 20.9353 54.675 20.006C54.3123 19.0767 53.791 18.272 53.111 17.592C52.4537 16.912 51.6717 16.3907 50.765 16.028C49.8583 15.6653 48.8723 15.484 47.807 15.484C46.7417 15.484 45.7557 15.6653 44.849 16.028C43.965 16.3907 43.183 16.912 42.503 17.592C41.823 18.272 41.2903 19.0767 40.905 20.006C40.5423 20.9353 40.361 21.9667 40.361 23.1C40.361 24.2107 40.5423 25.242 40.905 26.194C41.2903 27.1233 41.8117 27.928 42.469 28.608C43.149 29.288 43.9423 29.8093 44.849 30.172C45.7557 30.5347 46.7417 30.716 47.807 30.716ZM61.5085 35L72.1165 11.2H77.5565L88.1985 35H82.4185L73.7145 13.988H75.8905L67.1525 35H61.5085ZM66.8125 29.9L68.2745 25.718H80.5145L82.0105 29.9H66.8125ZM90.6677 35V11.2H100.97C103.1 11.2 104.936 11.5513 106.478 12.254C108.019 12.934 109.209 13.92 110.048 15.212C110.886 16.504 111.306 18.0453 111.306 19.836C111.306 21.604 110.886 23.134 110.048 24.426C109.209 25.6953 108.019 26.67 106.478 27.35C104.936 28.03 103.1 28.37 100.97 28.37H93.7277L96.1757 25.956V35H90.6677ZM105.798 35L99.8477 26.364H105.73L111.748 35H105.798ZM96.1757 26.568L93.7277 23.984H100.664C102.364 23.984 103.633 23.6213 104.472 22.896C105.31 22.148 105.73 21.128 105.73 19.836C105.73 18.5213 105.31 17.5013 104.472 16.776C103.633 16.0507 102.364 15.688 100.664 15.688H93.7277L96.1757 13.07V26.568ZM115.67 35V11.2H126.482C129.066 11.2 131.344 11.6987 133.316 12.696C135.288 13.6707 136.829 15.042 137.94 16.81C139.05 18.578 139.606 20.6747 139.606 23.1C139.606 25.5027 139.05 27.5993 137.94 29.39C136.829 31.158 135.288 32.5407 133.316 33.538C131.344 34.5127 129.066 35 126.482 35H115.67ZM121.178 30.478H126.21C127.796 30.478 129.168 30.1833 130.324 29.594C131.502 28.982 132.409 28.1207 133.044 27.01C133.701 25.8993 134.03 24.596 134.03 23.1C134.03 21.5813 133.701 20.278 133.044 19.19C132.409 18.0793 131.502 17.2293 130.324 16.64C129.168 16.028 127.796 15.722 126.21 15.722H121.178V30.478ZM143.76 35V11.2H149.268V35H143.76ZM154.916 35V11.2H159.472L173.514 28.336H171.304V11.2H176.744V35H172.222L158.146 17.864H160.356V35H154.916ZM193.867 35.408C191.985 35.408 190.251 35.1133 188.665 34.524C187.101 33.912 185.729 33.0507 184.551 31.94C183.395 30.8293 182.488 29.526 181.831 28.03C181.196 26.534 180.879 24.8907 180.879 23.1C180.879 21.3093 181.196 19.666 181.831 18.17C182.488 16.674 183.406 15.3707 184.585 14.26C185.763 13.1493 187.146 12.2993 188.733 11.71C190.319 11.098 192.065 10.792 193.969 10.792C196.077 10.792 197.969 11.1433 199.647 11.846C201.347 12.5487 202.775 13.5687 203.931 14.906L200.395 18.17C199.533 17.2633 198.593 16.5947 197.573 16.164C196.553 15.7107 195.442 15.484 194.241 15.484C193.085 15.484 192.031 15.6653 191.079 16.028C190.127 16.3907 189.299 16.912 188.597 17.592C187.917 18.272 187.384 19.0767 186.999 20.006C186.636 20.9353 186.455 21.9667 186.455 23.1C186.455 24.2107 186.636 25.2307 186.999 26.16C187.384 27.0893 187.917 27.9053 188.597 28.608C189.299 29.288 190.115 29.8093 191.045 30.172C191.997 30.5347 193.039 30.716 194.173 30.716C195.261 30.716 196.315 30.546 197.335 30.206C198.377 29.8433 199.386 29.2427 200.361 28.404L203.489 32.382C202.197 33.3567 200.689 34.1047 198.967 34.626C197.267 35.1473 195.567 35.408 193.867 35.408ZM198.457 31.668V22.726H203.489V32.382L198.457 31.668Z" fill="black"/>
<path d="M234.642 34.408C232.738 34.408 230.913 34.1587 229.168 33.66C227.423 33.1387 226.017 32.47 224.952 31.654L226.822 27.506C227.842 28.2313 229.043 28.832 230.426 29.308C231.831 29.7613 233.248 29.988 234.676 29.988C235.764 29.988 236.637 29.886 237.294 29.682C237.974 29.4553 238.473 29.1493 238.79 28.764C239.107 28.3787 239.266 27.9367 239.266 27.438C239.266 26.8033 239.017 26.3047 238.518 25.942C238.019 25.5567 237.362 25.2507 236.546 25.024C235.73 24.7747 234.823 24.548 233.826 24.344C232.851 24.1173 231.865 23.8453 230.868 23.528C229.893 23.2107 228.998 22.8027 228.182 22.304C227.366 21.8053 226.697 21.148 226.176 20.332C225.677 19.516 225.428 18.4733 225.428 17.204C225.428 15.844 225.791 14.6087 226.516 13.498C227.264 12.3647 228.375 11.4693 229.848 10.812C231.344 10.132 233.214 9.792 235.458 9.792C236.954 9.792 238.427 9.97333 239.878 10.336C241.329 10.676 242.609 11.1973 243.72 11.9L242.02 16.082C240.909 15.4473 239.799 14.9827 238.688 14.688C237.577 14.3707 236.489 14.212 235.424 14.212C234.359 14.212 233.486 14.3367 232.806 14.586C232.126 14.8353 231.639 15.164 231.344 15.572C231.049 15.9573 230.902 16.4107 230.902 16.932C230.902 17.544 231.151 18.0427 231.65 18.428C232.149 18.7907 232.806 19.0853 233.622 19.312C234.438 19.5387 235.333 19.7653 236.308 19.992C237.305 20.2187 238.291 20.4793 239.266 20.774C240.263 21.0687 241.17 21.4653 241.986 21.964C242.802 22.4627 243.459 23.12 243.958 23.936C244.479 24.752 244.74 25.7833 244.74 27.03C244.74 28.3673 244.366 29.5913 243.618 30.702C242.87 31.8127 241.748 32.708 240.252 33.388C238.779 34.068 236.909 34.408 234.642 34.408ZM248.504 34V10.2H258.806C260.936 10.2 262.772 10.5513 264.314 11.254C265.855 11.934 267.045 12.92 267.884 14.212C268.722 15.504 269.142 17.0453 269.142 18.836C269.142 20.604 268.722 22.134 267.884 23.426C267.045 24.718 265.855 25.7153 264.314 26.418C262.772 27.098 260.936 27.438 258.806 27.438H251.564L254.012 24.956V34H248.504ZM254.012 25.568L251.564 22.95H258.5C260.2 22.95 261.469 22.5873 262.308 21.862C263.146 21.1367 263.566 20.128 263.566 18.836C263.566 17.5213 263.146 16.5013 262.308 15.776C261.469 15.0507 260.2 14.688 258.5 14.688H251.564L254.012 12.07V25.568ZM268.751 34L279.359 10.2H284.799L295.441 34H289.661L280.957 12.988H283.133L274.395 34H268.751ZM274.055 28.9L275.517 24.718H287.757L289.253 28.9H274.055ZM308.968 34.408C307.132 34.408 305.421 34.1133 303.834 33.524C302.27 32.912 300.91 32.0507 299.754 30.94C298.598 29.8293 297.691 28.526 297.034 27.03C296.399 25.534 296.082 23.8907 296.082 22.1C296.082 20.3093 296.399 18.666 297.034 17.17C297.691 15.674 298.598 14.3707 299.754 13.26C300.933 12.1493 302.304 11.2993 303.868 10.71C305.432 10.098 307.143 9.792 309.002 9.792C311.065 9.792 312.923 10.1547 314.578 10.88C316.255 11.5827 317.661 12.6253 318.794 14.008L315.258 17.272C314.442 16.3427 313.535 15.6513 312.538 15.198C311.541 14.722 310.453 14.484 309.274 14.484C308.163 14.484 307.143 14.6653 306.214 15.028C305.285 15.3907 304.48 15.912 303.8 16.592C303.12 17.272 302.587 18.0767 302.202 19.006C301.839 19.9353 301.658 20.9667 301.658 22.1C301.658 23.2333 301.839 24.2647 302.202 25.194C302.587 26.1233 303.12 26.928 303.8 27.608C304.48 28.288 305.285 28.8093 306.214 29.172C307.143 29.5347 308.163 29.716 309.274 29.716C310.453 29.716 311.541 29.4893 312.538 29.036C313.535 28.56 314.442 27.846 315.258 26.894L318.794 30.158C317.661 31.5407 316.255 32.5947 314.578 33.32C312.923 34.0453 311.053 34.408 308.968 34.408ZM327.579 19.788H339.037V24.072H327.579V19.788ZM327.987 29.58H340.941V34H322.513V10.2H340.499V14.62H327.987V29.58Z" fill="white"/>
</svg>
