<svg width="20" height="22" viewBox="0 0 20 22" fill="none" xmlns="http://www.w3.org/2000/svg">
<path fill-rule="evenodd" clip-rule="evenodd" d="M5.5 0.5V2H14.5V0.5H16.5V2H19C19.4142 2 19.75 2.33579 19.75 2.75V20.525C19.75 21.0635 19.3135 21.5 18.775 21.5H1.225C0.686522 21.5 0.25 21.0635 0.25 20.525V2.75C0.25 2.33579 0.585786 2 1 2H3.5V0.5H5.5ZM17.8 19.55V8.5H2.2V19.55H17.8Z" fill="#14181F"/>
<path fill-rule="evenodd" clip-rule="evenodd" d="M5 11.025H7.00897V13.025H5V11.025ZM8.99551 11.025H11.0045V13.025H8.99551V11.025ZM12.991 11.025H15V13.025H12.991V11.025ZM5 15.025H7.00897V17.025H5V15.025ZM8.99551 15.025H11.0045V17.025H8.99551V15.025Z" fill="#14181F"/>
</svg>
