<?xml version="1.0" encoding="UTF-8"?>
<svg version="1.1" xmlns="http://www.w3.org/2000/svg" width="5000" height="5000">
<path d="M0 0 C75.04360104 -42.34047944 152.1309123 -82.91339326 403.74098819 -83.50961378 C469.65648816 -64.88161965 529.86668846 -31.84247053 589.19202965 1.64687638 C596.32168756 5.66825644 603.47074834 9.65362925 610.62841797 13.62490463 C680.29932447 52.30501082 748.78488705 92.96495412 1059.76231956 333.68159294 C1060.65988745 334.48663612 1060.65988745 334.48663612 1061.57558802 335.30794281 C1122.13991505 389.63975153 1180.3375805 446.25103102 1496.90231367 1210.72583007 C1502.78422053 1319.96653643 1504.57688833 1429.29901683 1498.20049126 1675.27241993 C1498.07466863 1678.62311245 1497.94946914 1681.97382787 1497.82432689 1685.32454586 C1493.79438792 1792.9899596 1488.36605004 1900.58419879 1445.13731956 2397.68159294 C1444.70309278 2397.30708604 1444.26886599 2396.93257913 1443.82148082 2396.54672353 C1439.9227021 2393.19311567 1435.99026182 2389.88569825 1432.01006609 2386.62898946 C1430.80686412 2385.64192568 1429.60370033 2384.65481536 1428.40056862 2383.66766594 C1427.44657001 2382.88552506 1427.44657001 2382.88552506 1426.4732987 2382.08758335 C1360.43661814 2327.92669192 1294.87009228 2273.14046727 1033.25351158 2038.08731025 C1028.94207323 2034.08350412 1024.62722296 2030.08339958 1020.31063962 2026.08514142 C959.802532 1970.03440326 899.98804997 1913.30096699 800.46935081 1808.90034294 C799.91432239 1808.30223137 799.35929397 1807.7041198 798.78744651 1807.08788363 C745.24837145 1749.3584092 693.22365034 1689.60457677 561.13949746 1197.54124157 C562.30296769 1168.61391512 564.35882813 1139.74988086 566.61837091 1110.89052531 C566.97806209 1106.26455886 567.32738775 1101.63783112 567.67710233 1097.0111016 C570.10329882 1064.98254394 572.92686155 1033.00199176 576.17167951 1001.04593159 C576.5757578 997.06199091 576.97523888 993.07759334 577.37422415 989.09313964 C585.7815537 906.84345615 602.66752977 827.17258859 618.13731956 745.68159294 C403.63731956 745.68159294 189.13731956 745.68159294 -31.86268044 745.68159294 C-22.27978981 795.72557732 -12.69689919 845.76956169 -2.82361794 897.33003044 C6.31272934 960.21642539 6.31272934 960.21642539 9.46291785 991.42796537 C9.88633765 995.61409265 10.31226184 999.79994658 10.74064679 1003.98556879 C14.0046321 1035.99549328 16.78526256 1068.03494951 19.23106223 1100.11728776 C19.58308364 1104.73350619 19.94152909 1109.34914914 20.30615777 1113.96438873 C29.67850381 1232.72119048 30.22073063 1353.52791696 -151.22256942 1738.50245521 C-172.15079076 1763.00011037 -193.82019322 1786.8381561 -215.74158669 1810.44721794 C-216.30063403 1811.04931386 -216.85968138 1811.65140977 -217.43566955 1812.27175102 C-273.81996527 1872.9636884 -332.52626981 1931.29563154 -439.21080284 2031.12381784 C-443.56653839 2035.16143142 -447.91893167 2039.20262296 -452.26941192 2043.24589813 C-512.13133487 2098.87885936 -572.45469845 2153.99599365 -842.75540909 2385.37569585 C-844.13192397 2386.50715831 -845.50787935 2387.63930183 -846.88324147 2388.77216525 C-848.73413304 2390.29589838 -850.58764485 2391.81637151 -852.44214576 2393.33570826 C-853.25519736 2394.00615297 -853.25519736 2394.00615297 -854.08467424 2394.69014203 C-857.74784067 2397.68159294 -857.74784067 2397.68159294 -858.86268044 2397.68159294 C-868.33449465 2311.05670202 -877.0587727 2224.35125779 -911.67496078 1681.97032642 C-911.80002949 1678.62313278 -911.92571905 1675.27596283 -912.0514475 1671.92879391 C-916.16140652 1562.23552037 -918.5532498 1452.52513975 -605.5997352 461.56524212 C-563.83767021 416.61608924 -519.14183801 374.62954674 -473.48768044 333.68159294 C-472.88915267 333.14445878 -472.29062491 332.60732461 -471.67395994 332.05391365 C-413.01307262 279.41946917 -352.60378439 228.88272444 -21.182852 11.8655857 C-14.10666223 7.93714029 -7.04806725 3.97865675 0 0 Z " fill="#CE9C37" transform="translate(2206.8626804351807,2080.318407058716)"/>
<path d="M0 0 C2.31 1.98 4.62 3.96 7 6 C8.85197273 7.54546387 10.70838274 9.08562748 12.56940693 10.62017971 C13.6466386 11.50949253 14.72383648 12.39884627 15.80100593 13.28823445 C16.3686024 13.75654223 16.93619887 14.22485002 17.52099524 14.70734895 C86.13731083 71.34157473 154.03642773 128.85161265 828.79247939 1006.87452792 C831.53632384 1035.9848711 832.05290571 1065.17409202 832.00198759 1094.39465252 C832 1097.12499968 832.00638161 1099.85520087 832.01553237 1102.58553195 C832.31222306 1197.24929569 817.9411817 1289.04726835 467.77708223 1775.52289146 C414.96915129 1828.65289219 360.67153746 1880.28583037 29.17555237 2171.76948547 C28.4385684 2172.38214159 27.70158443 2172.9947977 26.94226761 2173.62601915 C22.80829042 2177.06151114 18.6712253 2180.49322184 14.52913365 2183.91892687 C13.29763523 2184.93764743 12.06671664 2185.95706939 10.83641331 2186.97723293 C9.18056311 2188.34951729 7.52210501 2189.71857145 5.86268812 2191.08653909 C4.47968592 2192.22914321 4.47968592 2192.22914321 3.06874428 2193.39483025 C1 2195 1 2195 0 2195 C0 1470.65 0 746.3 0 0 Z " fill="#414140" transform="translate(1348,522)"/>
<path d="M0 0 C0 720.06 0 1440.12 0 2182 C-2.31 2180.02 -4.62 2178.04 -7 2176 C-8.85197273 2174.45453613 -10.70838274 2172.91437252 -12.56940693 2171.37982029 C-13.6466376 2170.49050645 -14.72383462 2169.60115184 -15.80100331 2168.71176293 C-16.36859968 2168.24345504 -16.93619604 2167.77514715 -17.52099229 2167.29264811 C-86.13798996 2110.65806576 -154.04888801 2053.17672053 -368.97576073 1858.55781812 C-372.82785759 1854.96983904 -376.68256216 1851.38467763 -380.53847188 1847.80079681 C-434.55558689 1797.58842095 -487.95050631 1746.75871587 -792.72918185 1189.05884828 C-794.41854084 1141.54678561 -792.03304127 1094.25309443 -788.50124675 1046.88046199 C-788.05845483 1040.92318937 -787.64093274 1034.9642876 -787.22625494 1029.0050025 C-781.63465018 949.07661 -772.8761027 869.36727205 -757.01317202 790.7697539 C-756.15535048 786.50681931 -755.33274898 782.23927384 -754.54358577 777.96310833 C-747.55031787 740.07801858 -736.64435637 715.92037734 -705.99335598 691.61221696 C-700.54391443 687.20473422 -695.38581243 682.51280657 -690.4453125 677.54296875 C-689.94980896 677.04600494 -689.45430542 676.54904114 -688.94378662 676.03701782 C-687.88422266 674.97369246 -686.82581332 673.90921545 -685.76849365 672.84365845 C-684.0878576 671.15007138 -682.40395371 669.45979223 -680.71923828 667.77026367 C-677.14331463 664.18300187 -673.57135568 660.5918088 -670 657 C-665.85620177 652.83247027 -661.71072339 648.66664025 -657.56097412 644.5050354 C-655.91501894 642.85267468 -654.27214355 641.19729535 -652.62939453 639.54174805 C-647.91746051 634.80701125 -643.16258461 630.20324404 -638.08374023 625.85888672 C-633.86811093 622.09816012 -629.93128587 618.0380855 -625.95368958 614.02885437 C-624.30666117 612.36886941 -622.65636048 610.71219765 -621.00524902 609.05627441 C-617.50065361 605.54034349 -614.00002445 602.02048047 -610.5 598.5 C-606.43880992 594.41507415 -602.37593706 590.33185107 -598.30879211 586.25285339 C-596.69607417 584.63373229 -595.08643782 583.01159216 -593.47692871 581.38928223 C-585.35450308 573.22674525 -585.35450308 573.22674525 -581.01367188 569.51367188 C-576.00446037 565.22651464 -571.4091006 560.52041931 -566.76849365 555.84365845 C-565.0878576 554.15007138 -563.40395371 552.45979223 -561.71923828 550.77026367 C-558.14331463 547.18300187 -554.57135568 543.5918088 -551 540 C-546.85620177 535.83247027 -542.71072339 531.66664025 -538.56097412 527.5050354 C-536.91501894 525.85267468 -535.27214355 524.19729535 -533.62939453 522.54174805 C-528.91746051 517.80701125 -524.16258461 513.20324404 -519.08374023 508.85888672 C-514.86811093 505.09816012 -510.93128587 501.0380855 -506.95368958 497.02885437 C-505.30666117 495.36886941 -503.65636048 493.71219765 -502.00524902 492.05627441 C-498.50065361 488.54034349 -495.00002445 485.02048047 -491.5 481.5 C-487.43880992 477.41507415 -483.37593706 473.33185107 -479.30879211 469.25285339 C-477.69607417 467.63373229 -476.08643782 466.01159216 -474.47692871 464.38928223 C-469.81833379 459.70768236 -465.11184659 455.16323116 -460.09143066 450.86657715 C-455.87386175 447.10244674 -451.9339034 443.04072384 -447.95368958 439.02885437 C-446.30666117 437.36886941 -444.65636048 435.71219765 -443.00524902 434.05627441 C-439.50065361 430.54034349 -436.00002445 427.02048047 -432.5 423.5 C-428.43880992 419.41507415 -424.37593706 415.33185107 -420.30879211 411.25285339 C-418.69607417 409.63373229 -417.08643782 408.01159216 -415.47692871 406.38928223 C-407.35450308 398.22674525 -407.35450308 398.22674525 -403.01367188 394.51367188 C-398.00446037 390.22651464 -393.4091006 385.52041931 -388.76849365 380.84365845 C-387.0878576 379.15007138 -385.40395371 377.45979223 -383.71923828 375.77026367 C-380.14331463 372.18300187 -376.57135568 368.5918088 -373 365 C-368.85620177 360.83247027 -364.71072339 356.66664025 -360.56097412 352.5050354 C-358.91501894 350.85267468 -357.27214355 349.19729535 -355.62939453 347.54174805 C-350.91746051 342.80701125 -346.16258461 338.20324404 -341.08374023 333.85888672 C-336.86811093 330.09816012 -332.93128587 326.0380855 -328.95368958 322.02885437 C-327.30666117 320.36886941 -325.65636048 318.71219765 -324.00524902 317.05627441 C-320.50065361 313.54034349 -317.00002445 310.02048047 -313.5 306.5 C-309.43880992 302.41507415 -305.37593706 298.33185107 -301.30879211 294.25285339 C-299.69607417 292.63373229 -298.08643782 291.01159216 -296.47692871 289.38928223 C-288.35450308 281.22674525 -288.35450308 281.22674525 -284.01367188 277.51367188 C-279.00446037 273.22651464 -274.4091006 268.52041931 -269.76849365 263.84365845 C-268.0878576 262.15007138 -266.40395371 260.45979223 -264.71923828 258.77026367 C-261.14331463 255.18300187 -257.57135568 251.5918088 -254 248 C-249.85620177 243.83247027 -245.71072339 239.66664025 -241.56097412 235.5050354 C-239.91501894 233.85267468 -238.27214355 232.19729535 -236.62939453 230.54174805 C-231.91746051 225.80701125 -227.16258461 221.20324404 -222.08374023 216.85888672 C-217.86811093 213.09816012 -213.93128587 209.0380855 -209.95368958 205.02885437 C-208.30666117 203.36886941 -206.65636048 201.71219765 -205.00524902 200.05627441 C-201.50065361 196.54034349 -198.00002445 193.02048047 -194.5 189.5 C-190.43880992 185.41507415 -186.37593706 181.33185107 -182.30879211 177.25285339 C-180.69607417 175.63373229 -179.08643782 174.01159216 -177.47692871 172.38928223 C-172.81833379 167.70768236 -168.11184659 163.16323116 -163.09143066 158.86657715 C-158.87386175 155.10244674 -154.9339034 151.04072384 -150.95368958 147.02885437 C-149.30666117 145.36886941 -147.65636048 143.71219765 -146.00524902 142.05627441 C-142.50065361 138.54034349 -139.00002445 135.02048047 -135.5 131.5 C-131.43880992 127.41507415 -127.37593706 123.33185107 -123.30879211 119.25285339 C-121.69607417 117.63373229 -120.08643782 116.01159216 -118.47692871 114.38928223 C-110.35450308 106.22674525 -110.35450308 106.22674525 -106.01367188 102.51367188 C-101.00446037 98.22651464 -96.4091006 93.52041931 -91.76849365 88.84365845 C-90.0878576 87.15007138 -88.40395371 85.45979223 -86.71923828 83.77026367 C-83.14331463 80.18300187 -79.57135568 76.5918088 -76 73 C-71.85620177 68.83247027 -67.71072339 64.66664025 -63.56097412 60.5050354 C-61.91501894 58.85267468 -60.27214355 57.19729535 -58.62939453 55.54174805 C-53.87393512 50.76330934 -49.07602077 46.11079708 -43.94940186 41.72677612 C-39.96410882 38.19661181 -36.27615789 34.35515241 -32.5390625 30.56640625 C-30.7514316 28.76614742 -28.9636674 26.96602096 -27.17578125 25.16601562 C-24.38238196 22.34765321 -21.59043251 19.52787612 -18.80126953 16.70532227 C-16.0931722 13.9672085 -13.37904261 11.23519298 -10.6640625 8.50390625 C-9.82453033 7.65091446 -8.98499817 6.79792267 -8.12002563 5.91908264 C-7.34516815 5.14084641 -6.57031067 4.36261017 -5.77197266 3.56079102 C-5.08994781 2.87130875 -4.40792297 2.18182648 -3.70523071 1.47145081 C-2 0 -2 0 0 0 Z " fill="#414140" transform="translate(3652,535)"/>
</svg>
